<?xml version="1.0" encoding="utf-8"?>
<!-- Generator: Adobe Illustrator 28.1.0, SVG Export Plug-In . SVG Version: 6.00 Build 0)  -->
<svg version="1.1" id="Layer_1" xmlns="http://www.w3.org/2000/svg" xmlns:xlink="http://www.w3.org/1999/xlink" x="0px" y="0px"
	 viewBox="0 0 228.5 62" style="enable-background:new 0 0 228.5 62;" xml:space="preserve">
<style type="text/css">
	.st0{fill:#3751AD;}
</style>
<g transform="translate(0.000000,201.000000) scale(0.100000,-0.100000)">
	<path class="st0" d="M149.2,1998c-15-20-155-578-149-594c4-11,34-14,139-14c149,0,158,3,160,62l2,33l-87,3c-49,1-88,6-88,9
		c0,4,27,111,60,239s60,242,60,253c0,18-6,21-44,21C178.2,2010,154.2,2004,149.2,1998z"/>
	<path class="st0" d="M815.2,2002c-15-2-33-11-41-20c-18-21-298-559-298-572c0-11,60-23,87-18c11,2,32,33,58,85l40,82l73,1h74l-4-82
		l-3-83l40-3c22-1,45,1,51,5c12,9,51,590,40,601C925.2,2004,856.2,2007,815.2,2002z M819.2,1725l-8-69l-47-1c-27-1-48,2-48,7
		c0,4,24,55,53,114l52,105l3-43C825.2,1814,823.2,1764,819.2,1725z"/>
	<path class="st0" d="M1286.2,1988c-19-47-150-579-145-588c7-12,75-13,92-2c6,4,29,78,51,165c21,86,42,154,45,150c4-3,7-39,7-79v-73
		l34-6c19-4,42-5,52-3c16,3,76,80,88,113c2,5,6,8,9,5s-9-65-27-137c-19-73-31-135-28-138s25-5,49-5c36,0,45,4,53,23
		c20,45,151,578,145,587c-9,15-92,12-108-4c-8-8-50-78-93-155c-44-77-82-141-85-141s-9,66-13,147c-4,80-9,150-12,155c-3,4-28,8-55,8
		C1303.2,2010,1294.2,2007,1286.2,1988z"/>
	<path class="st0" d="M1957.2,1973c-14-51-14-53,9-53c13,0,20-7,20-18c0-10-27-125-60-255c-34-131-58-242-55-247c7-12,75-13,91-2
		c6,4,24,61,40,127l30,120l60,6c70,7,91,17,132,63c35,40,50,84,59,167c5,48,2,58-18,83c-30,34-78,45-201,46h-97L1957.2,1973z
		 M2179.2,1856c-3-85-29-121-93-128c-30-4-30-4-6,100l19,83l41-3l41-3L2179.2,1856z"/>
</g>
</svg>
