<svg width="39" height="50" viewBox="0 0 39 50" fill="none" xmlns="http://www.w3.org/2000/svg">
<path d="M0.172485 49.1257C0.172485 44.1623 2.19295 39.4022 5.78939 35.8925C9.38583 32.3829 14.2636 30.4111 19.3498 30.4111C24.4359 30.4111 29.3137 32.3829 32.9102 35.8925C36.5066 39.4022 38.5271 44.1623 38.5271 49.1257H33.7328C33.7328 45.4031 32.2174 41.833 29.5201 39.2008C26.8228 36.5686 23.1644 35.0898 19.3498 35.0898C15.5352 35.0898 11.8768 36.5686 9.17949 39.2008C6.48216 41.833 4.96681 45.4031 4.96681 49.1257H0.172485ZM19.3498 28.0718C11.4032 28.0718 4.96681 21.7908 4.96681 14.0359C4.96681 6.28107 11.4032 0 19.3498 0C27.2964 0 33.7328 6.28107 33.7328 14.0359C33.7328 21.7908 27.2964 28.0718 19.3498 28.0718ZM19.3498 23.3932C24.6475 23.3932 28.9384 19.2058 28.9384 14.0359C28.9384 8.86602 24.6475 4.67864 19.3498 4.67864C14.0521 4.67864 9.76114 8.86602 9.76114 14.0359C9.76114 19.2058 14.0521 23.3932 19.3498 23.3932Z" fill="#EEEEEE"/>
</svg>