<?xml version="1.0" encoding="utf-8"?>
<!-- Generator: Adobe Illustrator 28.1.0, SVG Export Plug-In . SVG Version: 6.00 Build 0)  -->
<svg version="1.1" id="Layer_1" xmlns="http://www.w3.org/2000/svg" xmlns:xlink="http://www.w3.org/1999/xlink" x="0px" y="0px"
	 viewBox="0 0 347.4 129.8" style="enable-background:new 0 0 347.4 129.8;" xml:space="preserve">
<style type="text/css">
	.st0{fill:#3751AD;}
	.st1{fill:#28479E;}
</style>
<g transform="translate(0.000000,201.000000) scale(0.100000,-0.100000)">
	<path d="M230.7,2004.6c-22-3-42-8-45-13c-4-6-4-139,0-257c0-8,13-13,30-13c23,0,30,4,30,20c0,11-7,20-15,20c-13,0-15,15-13,96l3,96
		h214h214l-1-93c0-58-4-95-11-97c-6-2-11-12-11-23c0-14,7-19,30-19h30v139v138l-61,7C559.7,2011.6,299.7,2011.6,230.7,2004.6z"/>
	<path class="st0" d="M1337.8,1794.8c-15-20-155-578-149-594c4-11,34-14,139-14c149,0,158,3,160,62l2,33l-87,3c-49,1-88,6-88,9
		c0,4,27,111,60,239s60,242,60,253c0,18-6,21-44,21C1366.8,1806.8,1342.8,1800.8,1337.8,1794.8z"/>
	<path class="st0" d="M2003.8,1798.8c-15-2-33-11-41-20c-18-21-298-559-298-572c0-11,60-23,87-18c11,2,32,33,58,85l40,82l73,1h74
		l-4-82l-3-83l40-3c22-1,45,1,51,5c12,9,51,590,40,601C2113.8,1800.8,2044.8,1803.8,2003.8,1798.8z M2007.8,1521.8l-8-69l-47-1
		c-27-1-48,2-48,7c0,4,24,55,53,114l52,105l3-43C2013.8,1610.8,2011.8,1560.8,2007.8,1521.8z"/>
	<path class="st0" d="M2474.8,1784.8c-19-47-150-579-145-588c7-12,75-13,92-2c6,4,29,78,51,165c21,86,42,154,45,150c4-3,7-39,7-79
		v-73l34-6c19-4,42-5,52-3c16,3,76,80,88,113c2,5,6,8,9,5s-9-65-27-137c-19-73-31-135-28-138s25-5,49-5c36,0,45,4,53,23
		c20,45,151,578,145,587c-9,15-92,12-108-4c-8-8-50-78-93-155c-44-77-82-141-85-141s-9,66-13,147c-4,80-9,150-12,155c-3,4-28,8-55,8
		C2491.8,1806.8,2482.8,1803.8,2474.8,1784.8z"/>
	<path class="st0" d="M3145.8,1769.8c-14-51-14-53,9-53c13,0,20-7,20-18c0-10-27-125-60-255c-34-131-58-242-55-247c7-12,75-13,91-2
		c6,4,24,61,40,127l30,120l60,6c70,7,91,17,132,63c35,40,50,84,59,167c5,48,2,58-18,83c-30,34-78,45-201,46h-97L3145.8,1769.8z
		 M3367.8,1652.8c-3-85-29-121-93-128c-30-4-30-4-6,100l19,83l41-3l41-3L3367.8,1652.8z"/>
	<path d="M305.7,1741.6v-30h130h130v30v30h-130h-130V1741.6z"/>
	<path d="M240.7,1648.6c-8-4-15-19-15-32v-25h210h210v24c0,14-6,28-12,33C616.7,1658.6,259.7,1659.6,240.7,1648.6z"/>
	<path d="M309.4,1522.4c70-19.2,184-19.2,255,0c70,9.6,12,28.8-128,28.8S238.4,1532,309.4,1522.4z"/>
	<path class="st1" d="M40.7,1472.6c-9-16,1-28,50-57c42-24,65-25,65-4c0,9-66,55-95,66C53.7,1480.6,44.7,1478.6,40.7,1472.6z"/>
	<path class="st1" d="M761.7,1451.6c-44-28-57-56-25-54c24,2,101,54,97,66C826.7,1484.6,810.7,1481.6,761.7,1451.6z"/>
	<path class="st1" d="M265.7,1287.6v-173l60-2c48-1,60,2,60,14c0,8,4,23,9,33c5,9,12,25,15,35c10,31,41,20,59-21c9-21,17-44,17-50
		c0-8,21-12,60-12h60v175v175h-170h-170V1287.6z M463.7,1337.6c51-28,82-122,50-154c-20-20-46,4-46,43c0,34-16,65-33,65
		c-11,0-40-56-38-73c4-30-2-38-23-35c-50,7-26,122,31,153C436.7,1353.6,435.7,1353.6,463.7,1337.6z"/>
	<path class="st1" d="M2.7,1287.6c-9-22,2-26,65-26c51,0,59,2,56,18C119.7,1302.6,11.7,1310.6,2.7,1287.6z"/>
	<path class="st1" d="M747.7,1288.6c-18-21-4-27,60-27c51,0,59,2,56,18C859.7,1302.6,764.7,1309.6,747.7,1288.6z"/>
	<path class="st1" d="M90.7,1140.6c-16-11-36-24-44-28c-8-5-11-16-8-26c6-15,13-13,60,14c51,29,67,54,37,58
		C127.7,1159.6,107.7,1151.6,90.7,1140.6z"/>
	<path class="st1" d="M722.7,1154.6c-4-3-7-10-7-14c0-12,102-69,112-63c18,11,6,30-36,57C747.7,1162.6,733.7,1166.6,722.7,1154.6z"
		/>
	<path d="M186.7,1039.6c-4-13-7-68-7-123l1-100l253-1l253-1l-3,121l-3,121l-243,3l-242,2L186.7,1039.6z M494.7,985.6
		c47-60,6-130-72-125c-27,2-67,47-67,76C355.7,1003.6,453.7,1037.6,494.7,985.6z"/>
	<path d="M418.7,945.6c-8-21,13-42,28-27c13,13,5,43-11,43C429.7,961.6,422.7,954.6,418.7,945.6z"/>
	<path d="M115.7,736.6v-25h320h320v25v25h-320h-320V736.6z"/>
	<g>
		<path d="M1310.6,892.1h-11.9l-26.3,98.7c-0.6,2.4-1.1,4.6-1.5,6.8s-0.6,4.3-0.6,6.3h-0.3c-0.2-3.6-1.1-7.9-2.5-12.9l-27.3-98.9
			h-11.9l-36.3,133.1h12.7l27.1-104.4c0.6-2.3,1.1-4.5,1.5-6.5c0.4-2.1,0.7-4.1,0.9-6h0.3c0.3,2.8,1.3,7,2.8,12.5l28.8,104.4h9
			l27-104.8c0.5-2.1,1-4.2,1.4-6.2s0.7-4,0.9-5.9h0.3c0.1,1.2,0.3,2.6,0.7,4.2c0.3,1.6,0.7,3.3,1.2,5.2l26.9,107.5h12.4
			L1310.6,892.1z"/>
		<path d="M1407.5,892.1V909h-0.3c-2.9-6.1-6.8-10.8-11.7-14.1s-10.5-5-16.8-5c-4.2,0-8.1,0.6-11.5,1.9c-3.4,1.3-6.3,3.1-8.7,5.5
			s-4.2,5.2-5.5,8.6c-1.3,3.3-1.9,7-1.9,11c0,8.6,2.5,15.5,7.4,20.6s12.4,8.4,22.3,10l26.7,4.2c0,18.3-6.6,27.4-19.6,27.4
			c-10.2,0-19.7-4.1-28.5-12.2v13c1.8,1.4,3.9,2.7,6.2,3.9c2.3,1.1,4.8,2.1,7.3,3c2.6,0.8,5.2,1.5,7.9,1.9c2.7,0.5,5.4,0.7,7.9,0.7
			c9.8,0,17.2-3,22.2-8.9s7.5-14.8,7.5-26.5v-61.8h-10.9V892.1z M1384.9,938.3c-3.9-0.6-7.3-1.4-10.1-2.3c-2.8-0.9-5.1-2.2-6.9-3.8
			s-3.2-3.5-4-5.8c-0.9-2.3-1.3-5.2-1.3-8.6c0-2.5,0.4-4.9,1.2-7.1s2-4,3.6-5.6s3.5-2.8,5.7-3.7c2.3-0.9,4.8-1.3,7.7-1.3
			c3.9,0,7.5,0.8,10.7,2.4c3.3,1.6,6.1,3.8,8.5,6.7c2.4,2.8,4.2,6.2,5.6,10.2c1.3,4,2,8.3,2,12.9v9.4L1384.9,938.3z"/>
		<path d="M1504.2,892.1v54.8c0,21.5-7.2,32.2-21.6,32.2c-3.8,0-7.4-0.8-10.6-2.5c-3.3-1.6-6.1-3.9-8.5-6.8s-4.2-6.4-5.6-10.4
			s-2-8.3-2-12.9v-54.4h-11v95.1h11v-16.5h0.3c6.5,12.5,16.3,18.8,29.4,18.8c9.6,0,16.9-3.4,22-10.1c5-6.7,7.5-16.5,7.5-29.2v-57.9
			h-10.9V892.1z"/>
		<path d="M1579.4,893.3c-3.8-2-7.9-3.1-12.4-3.1c-14.2,0-21.3,8.9-21.3,26.6v60.1h-15.4v10.4h15.4v23.9l11,3.9v-27.8h22.7v-10.4
			h-22.7v-58.3c0-6.4,1-11.1,2.9-13.9c1.9-2.8,5.2-4.3,9.9-4.3c3.4,0,6.7,1.1,9.9,3.3L1579.4,893.3L1579.4,893.3z"/>
		<path d="M1683.3,893.3c-3.8-2-7.9-3.1-12.4-3.1c-14.2,0-21.3,8.9-21.3,26.6v60.1h-15.4v10.4h15.4v23.9l11,3.9v-27.8h22.7v-10.4
			h-22.6v-58.3c0-6.4,1-11.1,2.9-13.9c1.9-2.8,5.2-4.3,9.9-4.3c3.4,0,6.7,1.1,9.9,3.3v-10.4H1683.3z"/>
		<path d="M1736,889.9c-6.5,0-12.4,1.2-17.5,3.5s-9.6,5.7-13.3,10c-3.7,4.3-6.5,9.5-8.4,15.5s-2.9,12.6-2.9,20c0,7.9,1,15,3.1,21.3
			c2.1,6.2,5,11.6,8.8,15.9c3.8,4.4,8.4,7.7,13.8,10s11.4,3.4,18,3.4c6.3,0,12.1-1.1,17.2-3.4c5.1-2.3,9.4-5.5,13-9.8
			c3.5-4.3,6.3-9.5,8.2-15.6s2.8-13.1,2.8-20.9c0-7.4-1-14.2-3-20.3s-4.8-11.3-8.4-15.7c-3.7-4.4-8.1-7.8-13.4-10.2
			C1748.6,891.1,1742.7,889.9,1736,889.9z M1736.9,979.1c-4.8,0-9.2-0.9-13-2.7c-3.9-1.8-7.2-4.4-10-7.8c-2.8-3.4-4.9-7.6-6.4-12.6
			s-2.2-10.6-2.2-16.9c0-5.9,0.7-11.3,2.2-16.1s3.6-8.8,6.3-12.3c2.7-3.4,6-6,9.9-7.8s8.2-2.7,13-2.7c4.9,0,9.3,0.9,13,2.6
			c3.8,1.8,7,4.3,9.6,7.7s4.6,7.5,6,12.4c1.3,4.9,2,10.5,2,16.7c0,12.8-2.6,22.6-7.9,29.4C1754.2,975.7,1746.7,979.1,1736.9,979.1z"
			/>
		<path d="M1854.2,937.5c0.1-5.8,0.8-11,2.1-15.7c1.4-4.6,3.3-8.6,5.9-11.8c2.6-3.2,5.7-5.7,9.4-7.4s7.9-2.6,12.5-2.6
			c9.9,0,19.2,3.8,28.1,11.2v-11.7c-8.4-6.5-18.6-9.7-30.5-9.7c-5.9,0-11.2,1.1-16,3.3s-8.9,5.5-12.3,9.7s-6,9.5-7.8,15.6
			s-2.7,13.2-2.7,21.2c0,7.1,1,13.7,3,19.8s4.8,11.3,8.3,15.7s7.7,7.9,12.6,10.4c4.9,2.5,10.2,3.8,16,3.8c5.7,0,10.7-1.1,15-3.2
			c4.3-2.1,8-5.2,10.9-9.2s5.2-8.8,6.7-14.5s2.3-12.1,2.3-19.1v-5.9h-63.5V937.5z M1906.3,947.9c-0.2,9.9-2.3,17.6-6.5,23
			s-10,8.2-17.4,8.2c-3.7,0-7.2-0.7-10.3-2.1s-6-3.5-8.4-6.2s-4.4-6-6-9.8s-2.7-8.2-3.3-13h51.9V947.9z"/>
		<path d="M1998.5,892.1v54.8c0,21.5-7.2,32.2-21.6,32.2c-3.8,0-7.4-0.8-10.6-2.5c-3.3-1.6-6.1-3.9-8.5-6.8s-4.2-6.4-5.6-10.4
			s-2-8.3-2-12.9v-54.4h-11v95.1h11v-16.5h0.3c6.5,12.5,16.3,18.8,29.4,18.8c9.6,0,16.9-3.4,22-10.1c5-6.7,7.5-16.5,7.5-29.2v-57.9
			h-10.9V892.1z"/>
		<path d="M2035.9,892.1v140.7h11V892.1H2035.9z"/>
		<path d="M2080.6,1011.2c-2.1,0-3.9,0.8-5.5,2.4c-1.5,1.6-2.3,3.6-2.3,6.1c0,2.4,0.8,4.4,2.3,6s3.4,2.4,5.5,2.4
			c1.1,0,2.1-0.2,3.1-0.6c1-0.4,1.8-1,2.5-1.7c0.7-0.7,1.3-1.6,1.7-2.6s0.6-2.1,0.6-3.4c0-1.2-0.2-2.3-0.6-3.3c-0.4-1.1-1-2-1.7-2.7
			c-0.7-0.8-1.6-1.4-2.5-1.8C2082.8,1011.5,2081.7,1011.2,2080.6,1011.2z M2075.2,892.1v95.1h11v-95.1H2075.2z"/>
		<path d="M2187,899.5c0-17.6-3.7-30.7-11.1-39.2s-18.8-12.8-34.3-12.8c-9.6,0-18.7,2.3-27.3,7v12.1c9.6-5.8,18.6-8.6,27.3-8.6
			c22.9,0,34.4,13.1,34.4,39.4v11.4h-0.3c-6.7-12.5-17-18.8-30.9-18.8c-5.4,0-10.4,1.1-14.9,3.3s-8.3,5.3-11.5,9.4
			c-3.2,4.1-5.7,9-7.5,14.9s-2.7,12.5-2.7,19.8c0,7.8,0.9,14.9,2.8,21.3c1.9,6.4,4.6,11.9,8.1,16.5s7.7,8.1,12.7,10.6
			c4.9,2.5,10.5,3.8,16.7,3.8c12.4,0,21.5-5.4,27.2-16.3h0.3v14.1h11V899.5z M2176.1,949.9c0,4-0.7,7.7-2,11.2s-3.1,6.6-5.5,9.3
			c-2.3,2.7-5.1,4.8-8.4,6.4c-3.2,1.6-6.8,2.4-10.7,2.4c-4.6,0-8.7-1-12.4-2.9s-6.8-4.6-9.4-8.2c-2.6-3.5-4.6-7.8-6-12.9
			c-1.4-5-2.1-10.7-2.1-17c0-5.8,0.7-11.1,2-15.8s3.2-8.7,5.6-12c2.4-3.3,5.3-5.8,8.7-7.6s7.2-2.7,11.4-2.7c4.3,0,8.3,0.8,11.8,2.6
			c3.5,1.7,6.6,4.1,9.1,7.1s4.5,6.5,5.8,10.6s2.1,8.4,2.1,13.1L2176.1,949.9L2176.1,949.9z"/>
		<path d="M2274.6,892.1V948c0,10.6-1.8,18.5-5.3,23.5s-9.1,7.6-16.6,7.6c-3.5,0-6.9-0.8-10.1-2.3c-3.2-1.6-6-3.8-8.4-6.7
			s-4.3-6.5-5.8-10.6s-2.1-8.9-2.1-14.2v-53.2h-11v140.7h11v-62.1h0.3c6.9,12.4,16.7,18.7,29.5,18.7c9.8,0,17.1-3.3,22-9.7
			c4.9-6.5,7.4-16.1,7.4-28.8v-58.8C2285.5,892.1,2274.6,892.1,2274.6,892.1z"/>
		<path d="M2349.8,893.3c-3.8-2-7.9-3.1-12.4-3.1c-14.2,0-21.3,8.9-21.3,26.6v60.1h-15.4v10.4h15.4v23.9l11,3.9v-27.8h22.7v-10.4
			h-22.7v-58.3c0-6.4,1-11.1,2.9-13.9c1.9-2.8,5.2-4.3,9.9-4.3c3.4,0,6.7,1.1,9.9,3.3L2349.8,893.3L2349.8,893.3z"/>
		<path d="M2371.7,937.5c0.1-5.8,0.8-11,2.1-15.7c1.4-4.6,3.3-8.6,5.9-11.8c2.6-3.2,5.7-5.7,9.4-7.4s7.9-2.6,12.5-2.6
			c9.9,0,19.2,3.8,28.1,11.2v-11.7c-8.4-6.5-18.6-9.7-30.5-9.7c-5.9,0-11.2,1.1-16,3.3s-8.9,5.5-12.3,9.7s-6,9.5-7.8,15.6
			s-2.7,13.2-2.7,21.2c0,7.1,1,13.7,3,19.8s4.8,11.3,8.3,15.7s7.7,7.9,12.6,10.4c4.9,2.5,10.2,3.8,16,3.8c5.7,0,10.7-1.1,15-3.2
			c4.3-2.1,8-5.2,10.9-9.2s5.2-8.8,6.7-14.5s2.3-12.1,2.3-19.1v-5.9h-63.5V937.5z M2423.9,947.9c-0.2,9.9-2.3,17.6-6.5,23
			s-10,8.2-17.4,8.2c-3.7,0-7.2-0.7-10.3-2.1s-6-3.5-8.4-6.2s-4.4-6-6-9.8s-2.7-8.2-3.3-13h51.9V947.9z"/>
		<path d="M2516,892.1v54.8c0,21.5-7.2,32.2-21.6,32.2c-3.8,0-7.4-0.8-10.6-2.5c-3.3-1.6-6.1-3.9-8.5-6.8c-2.4-2.9-4.2-6.4-5.6-10.4
			s-2-8.3-2-12.9v-54.4h-11v95.1h11v-16.5h0.3c6.5,12.5,16.3,18.8,29.4,18.8c9.6,0,16.9-3.4,22-10.1c5-6.7,7.6-16.5,7.6-29.2v-57.9
			h-11V892.1z"/>
		<path d="M2627.1,874.9c-3.4-9.3-7.4-16.2-11.8-20.7c-4.5-4.5-9.9-6.7-16.2-6.7c-3.1,0-5.8,0.4-8,1.2v11.1c1.3-0.5,2.5-0.9,3.8-1.1
			s2.6-0.4,3.9-0.4c3.6,0,6.7,1.2,9.4,3.7c2.7,2.4,5,6.1,6.9,11.1l7.6,19.5l-33.8,94.6h12.2l25.1-75.3c0.3-1,0.7-2.1,1-3.4
			s0.6-2.5,0.9-3.8h0.4c0.3,1,0.6,2.1,0.8,3.2c0.3,1.1,0.6,2.3,1.1,3.6l26.7,75.7h11.6L2627.1,874.9z"/>
		<path d="M2719,889.9c-6.5,0-12.4,1.2-17.5,3.5s-9.6,5.7-13.3,10s-6.5,9.5-8.4,15.5s-2.9,12.6-2.9,20c0,7.9,1,15,3.1,21.3
			s5,11.6,8.8,15.9c3.8,4.4,8.4,7.7,13.8,10c5.4,2.3,11.4,3.4,18,3.4c6.3,0,12.1-1.1,17.2-3.4c5.1-2.3,9.4-5.5,12.9-9.8
			s6.3-9.5,8.2-15.6s2.8-13.1,2.8-20.9c0-7.4-1-14.2-3-20.3s-4.8-11.3-8.5-15.7s-8.1-7.8-13.4-10.2
			C2731.5,891.1,2725.6,889.9,2719,889.9z M2719.8,979.1c-4.8,0-9.2-0.9-13-2.7s-7.2-4.4-10-7.8c-2.8-3.4-4.9-7.6-6.4-12.6
			s-2.2-10.6-2.2-16.9c0-5.9,0.7-11.3,2.2-16.1s3.6-8.8,6.3-12.3s6-6,9.9-7.8s8.2-2.7,13-2.7c4.9,0,9.3,0.9,13,2.6
			c3.8,1.8,7,4.3,9.6,7.7s4.6,7.5,6,12.4c1.3,4.9,2,10.5,2,16.7c0,12.8-2.6,22.6-7.9,29.4S2729.6,979.1,2719.8,979.1z"/>
		<path d="M2841.2,892.1v16.2h-0.4c-5.9-12.3-15.2-18.4-27.7-18.4c-20.9,0-31.3,13.8-31.3,41.4v55.9h11v-53.7
			c0-11.4,1.9-19.8,5.6-25.2c3.8-5.4,9.5-8.2,17.2-8.2c3.8,0,7.2,0.8,10.3,2.4c3.1,1.6,5.8,3.8,8.1,6.7s4,6.3,5.3,10.4
			s1.9,8.5,1.9,13.4v54.3h11v-95.1h-11V892.1z"/>
		<path d="M2924.1,975c-2.6,2-5.9,3.1-10,3.1c-2.9,0-5.5-0.6-7.7-1.8s-4.2-2.8-5.9-4.9c-1.7-2.1-3.1-4.4-4.3-7.1
			c-1.2-2.7-2.1-5.5-2.8-8.4s-1.2-5.8-1.5-8.8s-0.5-5.8-0.5-8.4v-46.5h-10.9v95.1h10.9V967h0.3c1,3.5,2.3,6.6,3.9,9.3s3.4,5.1,5.4,7
			s4.3,3.3,6.7,4.3s5,1.5,7.7,1.5c1.8,0,3.4-0.1,4.8-0.4c1.4-0.2,2.7-0.6,3.8-1.1V975H2924.1z"/>
		<path d="M3067.5,892.1h-11l-18.6,69.8c-0.6,2.2-1,5-1.4,8.4h-0.3c-0.1-0.9-0.3-2.1-0.6-3.4c-0.3-1.4-0.7-3-1.2-4.8l-20.5-70h-10.7
			l-26.6,95.1h11.7l19.3-73.7c0.6-2.2,1-4.9,1.2-8.3h0.7c0.1,1.1,0.3,2.4,0.6,3.8c0.3,1.4,0.6,2.9,1.1,4.6l21.3,73.6h9.1l19-73.8
			c0.5-2.1,0.9-4.9,1.3-8.3h0.7c-0.1,1,0.1,2.3,0.3,3.7c0.3,1.4,0.7,2.9,1.1,4.6l19.3,73.8h11.1L3067.5,892.1z"/>
		<path d="M3146.5,889.9c-6.5,0-12.4,1.2-17.5,3.5s-9.6,5.7-13.3,10s-6.5,9.5-8.4,15.5s-2.9,12.6-2.9,20c0,7.9,1,15,3.1,21.3
			s5,11.6,8.8,15.9c3.8,4.4,8.4,7.7,13.8,10c5.4,2.3,11.4,3.4,18,3.4c6.3,0,12.1-1.1,17.2-3.4c5.1-2.3,9.4-5.5,12.9-9.8
			s6.3-9.5,8.2-15.6s2.8-13.1,2.8-20.9c0-7.4-1-14.2-3-20.3s-4.8-11.3-8.5-15.7s-8.1-7.8-13.4-10.2
			C3159.1,891.1,3153.2,889.9,3146.5,889.9z M3147.4,979.1c-4.8,0-9.2-0.9-13-2.7s-7.2-4.4-10-7.8c-2.8-3.4-4.9-7.6-6.4-12.6
			s-2.2-10.6-2.2-16.9c0-5.9,0.7-11.3,2.2-16.1s3.6-8.8,6.3-12.3s6-6,9.9-7.8s8.2-2.7,13-2.7c4.9,0,9.3,0.9,13,2.6
			c3.8,1.8,7,4.3,9.6,7.7s4.6,7.5,6,12.4c1.3,4.9,2,10.5,2,16.7c0,12.8-2.6,22.6-7.9,29.4S3157.2,979.1,3147.4,979.1z"/>
		<path d="M3254.9,975c-2.6,2-5.9,3.1-10,3.1c-2.9,0-5.5-0.6-7.7-1.8s-4.2-2.8-5.9-4.9c-1.7-2.1-3.1-4.4-4.3-7.1
			c-1.2-2.7-2.1-5.5-2.8-8.4s-1.2-5.8-1.5-8.8s-0.5-5.8-0.5-8.4v-46.5h-10.9v95.1h10.9V967h0.3c1,3.5,2.3,6.6,3.9,9.3s3.4,5.1,5.4,7
			s4.3,3.3,6.7,4.3s5,1.5,7.7,1.5c1.8,0,3.4-0.1,4.8-0.4c1.4-0.2,2.7-0.6,3.8-1.1V975H3254.9z"/>
		<path d="M3270.8,892.1v140.7h11V892.1H3270.8z"/>
		<path d="M3371.7,892.1v16.7h-0.3c-2.9-6-7.1-10.7-12.5-14s-11.5-5-18.4-5c-5.5,0-10.5,1.1-15,3.3s-8.3,5.4-11.5,9.5
			s-5.7,9.2-7.4,15s-2.6,12.5-2.6,20c0,7.7,1,14.7,2.9,21s4.6,11.8,8.2,16.3s7.7,8.1,12.7,10.6s10.4,3.8,16.5,3.8
			c12.6,0,21.7-5.5,27.2-16.4h0.3v59.9h11V892.1H3371.7z M3371.7,949.5c0,4.2-0.7,8-2,11.6s-3.1,6.7-5.5,9.4
			c-2.3,2.7-5.2,4.8-8.4,6.3c-3.3,1.5-6.9,2.3-10.9,2.3c-4.3,0-8.3-0.9-12-2.8c-3.7-1.9-6.8-4.5-9.4-8c-2.6-3.5-4.6-7.8-6.1-12.8
			s-2.2-10.7-2.2-17.1c0-6,0.7-11.4,2-16.2s3.2-8.8,5.6-12.1c2.4-3.3,5.3-5.8,8.7-7.5s7.1-2.6,11.2-2.6c4.5,0,8.5,0.9,12.1,2.6
			c3.6,1.7,6.6,4.1,9.1,7.1s4.4,6.6,5.8,10.7c1.3,4.1,2,8.4,2,13.1L3371.7,949.5L3371.7,949.5z"/>
		<path d="M3427.4,929.1c-0.6,1.6-1.1,3.7-1.5,6.2s-0.6,5-0.6,7.6c0,3.2,0.4,6,1.4,8.6s2.1,5,3.6,7.3s3.2,4.5,5.2,6.6s4,4.2,6.1,6.4
			c1.7,1.7,3.4,3.5,4.9,5.3s3,3.7,4.2,5.8s2.2,4.2,2.9,6.5s1.1,4.8,1.1,7.5c0,3.2-0.5,6.1-1.6,8.5c-1.1,2.5-2.5,4.6-4.4,6.3
			s-4.1,3-6.6,3.9s-5.3,1.3-8.2,1.3c-5.1,0-9.9-1-14.2-3c-4.4-2-8.4-5-12.2-8.9v13.2c4.2,3.2,8.6,5.5,13.1,7.1s9.3,2.3,14.4,2.3
			c4.3,0,8.3-0.6,12.1-1.9c3.7-1.3,7-3.1,9.7-5.6s4.9-5.5,6.5-9.1s2.4-7.8,2.4-12.6c0-3.5-0.4-6.7-1.3-9.6c-0.9-2.9-2.1-5.6-3.5-8.1
			c-1.5-2.5-3.1-4.8-4.9-7c-1.8-2.2-3.7-4.2-5.7-6.2c-2.5-2.5-4.6-4.8-6.5-6.8s-3.4-3.9-4.7-5.8s-2.2-3.7-2.9-5.7
			c-0.7-1.9-1-4.1-1-6.4c0-2.8,0.3-5.4,0.8-7.7s1.1-4.3,1.7-5.9L3427.4,929.1L3427.4,929.1z M3432.7,890.5c-1.1,0-2.1,0.2-3.1,0.6
			c-1,0.4-1.8,1.1-2.6,1.9c-0.7,0.8-1.3,1.7-1.8,2.8s-0.7,2.2-0.7,3.5s0.2,2.5,0.6,3.6c0.4,1.1,1,2,1.8,2.8c0.7,0.8,1.6,1.4,2.6,1.9
			s2,0.7,3.1,0.7s2.1-0.2,3.1-0.6c1-0.4,1.9-1.1,2.7-1.9c0.8-0.8,1.4-1.7,1.8-2.8s0.7-2.3,0.7-3.6c0-1.2-0.2-2.4-0.7-3.5
			s-1.1-2-1.8-2.8c-0.8-0.8-1.7-1.4-2.7-1.9C3434.9,890.7,3433.8,890.5,3432.7,890.5z"/>
	</g>
</g>
</svg>
