<?xml version="1.0" encoding="utf-8"?>
<!-- Generator: Adobe Illustrator 28.1.0, SVG Export Plug-In . SVG Version: 6.00 Build 0)  -->
<svg version="1.1" id="Layer_1" xmlns="http://www.w3.org/2000/svg" xmlns:xlink="http://www.w3.org/1999/xlink" x="0px" y="0px"
	 viewBox="0 0 551 201" style="enable-background:new 0 0 551 201;" xml:space="preserve">
<style type="text/css">
	.st0{fill:#28479E;}
</style>
<g transform="translate(0.000000,201.000000) scale(0.100000,-0.100000)">
	<path d="M515,1743c-22-3-42-8-45-13c-4-6-4-139,0-257c0-8,13-13,30-13c23,0,30,4,30,20c0,11-7,20-15,20c-13,0-15,15-13,96l3,96h214
		h214l-1-93c0-58-4-95-11-97c-6-2-11-12-11-23c0-14,7-19,30-19h30v139v138l-61,7C844,1750,584,1750,515,1743z"/>
	<path d="M590,1480v-30h130h130v30v30H720H590V1480z"/>
	<path d="M525,1387c-8-4-15-19-15-32v-25h210h210v24c0,14-6,28-12,33C901,1397,544,1398,525,1387z"/>
	<path d="M593.7,1260.8c70-19.2,184-19.2,255,0c70,9.6,12,28.8-128,28.8S522.7,1270.4,593.7,1260.8z"/>
	<path class="st0" d="M325,1211c-9-16,1-28,50-57c42-24,65-25,65-4c0,9-66,55-95,66C338,1219,329,1217,325,1211z"/>
	<path class="st0" d="M1046,1190c-44-28-57-56-25-54c24,2,101,54,97,66C1111,1223,1095,1220,1046,1190z"/>
	<path class="st0" d="M550,1026V853l60-2c48-1,60,2,60,14c0,8,4,23,9,33c5,9,12,25,15,35c10,31,41,20,59-21c9-21,17-44,17-50
		c0-8,21-12,60-12h60v175v175H720H550V1026z M748,1076c51-28,82-122,50-154c-20-20-46,4-46,43c0,34-16,65-33,65c-11,0-40-56-38-73
		c4-30-2-38-23-35c-50,7-26,122,31,153C721,1092,720,1092,748,1076z"/>
	<path class="st0" d="M287,1026c-9-22,2-26,65-26c51,0,59,2,56,18C404,1041,296,1049,287,1026z"/>
	<path class="st0" d="M1032,1027c-18-21-4-27,60-27c51,0,59,2,56,18C1144,1041,1049,1048,1032,1027z"/>
	<path class="st0" d="M375,879c-16-11-36-24-44-28c-8-5-11-16-8-26c6-15,13-13,60,14c51,29,67,54,37,58C412,898,392,890,375,879z"/>
	<path class="st0" d="M1007,893c-4-3-7-10-7-14c0-12,102-69,112-63c18,11,6,30-36,57C1032,901,1018,905,1007,893z"/>
	<path d="M471,778c-4-13-7-68-7-123l1-100l253-1l253-1l-3,121l-3,121l-243,3l-242,2L471,778z M779,724c47-60,6-130-72-125
		c-27,2-67,47-67,76C640,742,738,776,779,724z"/>
	<path d="M703,684c-8-21,13-42,28-27c13,13,5,43-11,43C714,700,707,693,703,684z"/>
	<path d="M400,475v-25h320h320v25v25H720H400V475z"/>
</g>
</svg>
