<?xml version="1.0" encoding="utf-8"?>
<!-- Generator: Adobe Illustrator 28.1.0, SVG Export Plug-In . SVG Version: 6.00 Build 0)  -->
<svg version="1.1" id="Layer_1" xmlns="http://www.w3.org/2000/svg" xmlns:xlink="http://www.w3.org/1999/xlink" x="0px" y="0px"
	 viewBox="0 0 551 201" style="enable-background:new 0 0 551 201;" xml:space="preserve">
<style type="text/css">
	.st0{fill:#3751AD;}
</style>
<g transform="translate(0.000000,201.000000) scale(0.100000,-0.100000)">
	<path class="st0" d="M1622.1,1533.2c-15-20-155-578-149-594c4-11,34-14,139-14c149,0,158,3,160,62l2,33l-87,3c-49,1-88,6-88,9
		c0,4,27,111,60,239s60,242,60,253c0,18-6,21-44,21C1651.1,1545.2,1627.1,1539.2,1622.1,1533.2z"/>
	<path class="st0" d="M2288.1,1537.2c-15-2-33-11-41-20c-18-21-298-559-298-572c0-11,60-23,87-18c11,2,32,33,58,85l40,82l73,1h74
		l-4-82l-3-83l40-3c22-1,45,1,51,5c12,9,51,590,40,601C2398.1,1539.2,2329.1,1542.2,2288.1,1537.2z M2292.1,1260.2l-8-69l-47-1
		c-27-1-48,2-48,7c0,4,24,55,53,114l52,105l3-43C2298.1,1349.2,2296.1,1299.2,2292.1,1260.2z"/>
	<path class="st0" d="M2759.1,1523.2c-19-47-150-579-145-588c7-12,75-13,92-2c6,4,29,78,51,165c21,86,42,154,45,150c4-3,7-39,7-79
		v-73l34-6c19-4,42-5,52-3c16,3,76,80,88,113c2,5,6,8,9,5s-9-65-27-137c-19-73-31-135-28-138s25-5,49-5c36,0,45,4,53,23
		c20,45,151,578,145,587c-9,15-92,12-108-4c-8-8-50-78-93-155c-44-77-82-141-85-141s-9,66-13,147c-4,80-9,150-12,155c-3,4-28,8-55,8
		C2776.1,1545.2,2767.1,1542.2,2759.1,1523.2z"/>
	<path class="st0" d="M3430.1,1508.2c-14-51-14-53,9-53c13,0,20-7,20-18c0-10-27-125-60-255c-34-131-58-242-55-247c7-12,75-13,91-2
		c6,4,24,61,40,127l30,120l60,6c70,7,91,17,132,63c35,40,50,84,59,167c5,48,2,58-18,83c-30,34-78,45-201,46h-97L3430.1,1508.2z
		 M3652.1,1391.2c-3-85-29-121-93-128c-30-4-30-4-6,100l19,83l41-3l41-3L3652.1,1391.2z"/>
	<g>
		<path d="M1594.9,630.5H1583l-26.3,98.7c-0.6,2.4-1.1,4.6-1.5,6.8s-0.6,4.3-0.6,6.3h-0.3c-0.2-3.6-1.1-7.9-2.5-12.9l-27.3-98.9
			h-11.9l-36.3,133.1h12.7l27.1-104.4c0.6-2.3,1.1-4.5,1.5-6.5c0.4-2.1,0.7-4.1,0.9-6h0.3c0.3,2.8,1.3,7,2.8,12.5l28.8,104.4h9
			l27-104.8c0.5-2.1,1-4.2,1.4-6.2c0.4-2,0.7-4,0.9-5.9h0.3c0.1,1.2,0.3,2.6,0.7,4.2c0.3,1.6,0.7,3.3,1.2,5.2l26.9,107.5h12.4
			L1594.9,630.5z"/>
		<path d="M1691.8,630.5v16.9h-0.3c-2.9-6.1-6.8-10.8-11.7-14.1s-10.5-5-16.8-5c-4.2,0-8.1,0.6-11.5,1.9c-3.4,1.3-6.3,3.1-8.7,5.5
			s-4.2,5.2-5.5,8.6c-1.3,3.3-1.9,7-1.9,11c0,8.6,2.5,15.5,7.4,20.6c4.9,5.1,12.4,8.4,22.3,10l26.7,4.2c0,18.3-6.6,27.4-19.6,27.4
			c-10.2,0-19.7-4.1-28.5-12.2v13c1.8,1.4,3.9,2.7,6.2,3.9c2.3,1.1,4.8,2.1,7.3,3c2.6,0.8,5.2,1.5,7.9,1.9c2.7,0.5,5.4,0.7,7.9,0.7
			c9.8,0,17.2-3,22.2-8.9s7.5-14.8,7.5-26.5v-61.8H1691.8z M1669.2,676.7c-3.9-0.6-7.3-1.4-10.1-2.3c-2.8-0.9-5.1-2.2-6.9-3.8
			c-1.8-1.6-3.2-3.5-4-5.8c-0.9-2.3-1.3-5.2-1.3-8.6c0-2.5,0.4-4.9,1.2-7.1s2-4,3.6-5.6s3.5-2.8,5.7-3.7c2.3-0.9,4.8-1.3,7.7-1.3
			c3.9,0,7.5,0.8,10.7,2.4c3.3,1.6,6.1,3.8,8.5,6.7c2.4,2.8,4.2,6.2,5.6,10.2c1.3,4,2,8.3,2,12.9v9.4L1669.2,676.7z"/>
		<path d="M1788.5,630.5v54.8c0,21.5-7.2,32.2-21.6,32.2c-3.8,0-7.4-0.8-10.6-2.5c-3.3-1.6-6.1-3.9-8.5-6.8s-4.2-6.4-5.6-10.4
			s-2-8.3-2-12.9v-54.4h-11v95.1h11v-16.5h0.3c6.5,12.5,16.3,18.8,29.4,18.8c9.6,0,16.9-3.4,22-10.1c5-6.7,7.5-16.5,7.5-29.2v-57.9
			H1788.5z"/>
		<path d="M1863.7,631.7c-3.8-2-7.9-3.1-12.4-3.1c-14.2,0-21.3,8.9-21.3,26.6v60.1h-15.4v10.4h15.4v23.9l11,3.9v-27.8h22.7v-10.4
			H1841V657c0-6.4,1-11.1,2.9-13.9c1.9-2.8,5.2-4.3,9.9-4.3c3.4,0,6.7,1.1,9.9,3.3V631.7z"/>
		<path d="M1967.6,631.7c-3.8-2-7.9-3.1-12.4-3.1c-14.2,0-21.3,8.9-21.3,26.6v60.1h-15.4v10.4h15.4v23.9l11,3.9v-27.8h22.7v-10.4
			H1945V657c0-6.4,1-11.1,2.9-13.9c1.9-2.8,5.2-4.3,9.9-4.3c3.4,0,6.7,1.1,9.9,3.3V631.7z"/>
		<path d="M2020.3,628.3c-6.5,0-12.4,1.2-17.5,3.5s-9.6,5.7-13.3,10c-3.7,4.3-6.5,9.5-8.4,15.5c-1.9,6-2.9,12.6-2.9,20
			c0,7.9,1,15,3.1,21.3c2.1,6.2,5,11.6,8.8,15.9c3.8,4.4,8.4,7.7,13.8,10c5.4,2.3,11.4,3.4,18,3.4c6.3,0,12.1-1.1,17.2-3.4
			c5.1-2.3,9.4-5.5,13-9.8c3.5-4.3,6.3-9.5,8.2-15.6c1.9-6.1,2.8-13.1,2.8-20.9c0-7.4-1-14.2-3-20.3s-4.8-11.3-8.4-15.7
			c-3.7-4.4-8.1-7.8-13.4-10.2C2032.9,629.5,2027,628.3,2020.3,628.3z M2021.2,717.5c-4.8,0-9.2-0.9-13-2.7c-3.9-1.8-7.2-4.4-10-7.8
			c-2.8-3.4-4.9-7.6-6.4-12.6s-2.2-10.6-2.2-16.9c0-5.9,0.7-11.3,2.2-16.1s3.6-8.8,6.3-12.3c2.7-3.4,6-6,9.9-7.8
			c3.9-1.8,8.2-2.7,13-2.7c4.9,0,9.3,0.9,13,2.6c3.8,1.8,7,4.3,9.6,7.7c2.6,3.4,4.6,7.5,6,12.4c1.3,4.9,2,10.5,2,16.7
			c0,12.8-2.6,22.6-7.9,29.4C2038.5,714.1,2031,717.5,2021.2,717.5z"/>
		<path d="M2138.5,675.9c0.1-5.8,0.8-11,2.1-15.7c1.4-4.6,3.3-8.6,5.9-11.8c2.6-3.2,5.7-5.7,9.4-7.4c3.7-1.7,7.9-2.6,12.5-2.6
			c9.9,0,19.2,3.8,28.1,11.2v-11.7c-8.4-6.5-18.6-9.7-30.5-9.7c-5.9,0-11.2,1.1-16,3.3s-8.9,5.5-12.3,9.7s-6,9.5-7.8,15.6
			s-2.7,13.2-2.7,21.2c0,7.1,1,13.7,3,19.8s4.8,11.3,8.3,15.7s7.7,7.9,12.6,10.4c4.9,2.5,10.2,3.8,16,3.8c5.7,0,10.7-1.1,15-3.2
			c4.3-2.1,8-5.2,10.9-9.2c2.9-4,5.2-8.8,6.7-14.5c1.5-5.7,2.3-12.1,2.3-19.1v-5.9H2138.5z M2190.6,686.3c-0.2,9.9-2.3,17.6-6.5,23
			s-10,8.2-17.4,8.2c-3.7,0-7.2-0.7-10.3-2.1s-6-3.5-8.4-6.2c-2.4-2.7-4.4-6-6-9.8s-2.7-8.2-3.3-13H2190.6z"/>
		<path d="M2282.8,630.5v54.8c0,21.5-7.2,32.2-21.6,32.2c-3.8,0-7.4-0.8-10.6-2.5c-3.3-1.6-6.1-3.9-8.5-6.8s-4.2-6.4-5.6-10.4
			s-2-8.3-2-12.9v-54.4h-11v95.1h11v-16.5h0.3c6.5,12.5,16.3,18.8,29.4,18.8c9.6,0,16.9-3.4,22-10.1c5-6.7,7.5-16.5,7.5-29.2v-57.9
			H2282.8z"/>
		<path d="M2320.2,630.5v140.7h11V630.5H2320.2z"/>
		<path d="M2364.9,749.6c-2.1,0-3.9,0.8-5.5,2.4c-1.5,1.6-2.3,3.6-2.3,6.1c0,2.4,0.8,4.4,2.3,6c1.5,1.6,3.4,2.4,5.5,2.4
			c1.1,0,2.1-0.2,3.1-0.6c1-0.4,1.8-1,2.5-1.7c0.7-0.7,1.3-1.6,1.7-2.6c0.4-1,0.6-2.1,0.6-3.4c0-1.2-0.2-2.3-0.6-3.3
			c-0.4-1.1-1-2-1.7-2.7c-0.7-0.8-1.6-1.4-2.5-1.8C2367.1,749.9,2366,749.6,2364.9,749.6z M2359.5,630.5v95.1h11v-95.1H2359.5z"/>
		<path d="M2471.3,637.9c0-17.6-3.7-30.7-11.1-39.2s-18.8-12.8-34.3-12.8c-9.6,0-18.7,2.3-27.3,7v12.1c9.6-5.8,18.6-8.6,27.3-8.6
			c22.9,0,34.4,13.1,34.4,39.4v11.4h-0.3c-6.7-12.5-17-18.8-30.9-18.8c-5.4,0-10.4,1.1-14.9,3.3c-4.5,2.2-8.3,5.3-11.5,9.4
			c-3.2,4.1-5.7,9-7.5,14.9s-2.7,12.5-2.7,19.8c0,7.8,0.9,14.9,2.8,21.3c1.9,6.4,4.6,11.9,8.1,16.5c3.5,4.6,7.7,8.1,12.7,10.6
			c4.9,2.5,10.5,3.8,16.7,3.8c12.4,0,21.5-5.4,27.2-16.3h0.3v14.1h11V637.9z M2460.4,688.3c0,4-0.7,7.7-2,11.2
			c-1.3,3.5-3.1,6.6-5.5,9.3c-2.3,2.7-5.1,4.8-8.4,6.4c-3.2,1.6-6.8,2.4-10.7,2.4c-4.6,0-8.7-1-12.4-2.9c-3.7-1.9-6.8-4.6-9.4-8.2
			c-2.6-3.5-4.6-7.8-6-12.9c-1.4-5-2.1-10.7-2.1-17c0-5.8,0.7-11.1,2-15.8c1.3-4.7,3.2-8.7,5.6-12c2.4-3.3,5.3-5.8,8.7-7.6
			s7.2-2.7,11.4-2.7c4.3,0,8.3,0.8,11.8,2.6c3.5,1.7,6.6,4.1,9.1,7.1c2.5,3,4.5,6.5,5.8,10.6s2.1,8.4,2.1,13.1V688.3z"/>
		<path d="M2558.9,630.5v55.9c0,10.6-1.8,18.5-5.3,23.5c-3.5,5-9.1,7.6-16.6,7.6c-3.5,0-6.9-0.8-10.1-2.3c-3.2-1.6-6-3.8-8.4-6.7
			c-2.4-2.9-4.3-6.5-5.8-10.6s-2.1-8.9-2.1-14.2v-53.2h-11v140.7h11v-62.1h0.3c6.9,12.4,16.7,18.7,29.5,18.7c9.8,0,17.1-3.3,22-9.7
			c4.9-6.5,7.4-16.1,7.4-28.8v-58.8H2558.9z"/>
		<path d="M2634.1,631.7c-3.8-2-7.9-3.1-12.4-3.1c-14.2,0-21.3,8.9-21.3,26.6v60.1H2585v10.4h15.4v23.9l11,3.9v-27.8h22.7v-10.4
			h-22.7V657c0-6.4,1-11.1,2.9-13.9c1.9-2.8,5.2-4.3,9.9-4.3c3.4,0,6.7,1.1,9.9,3.3V631.7z"/>
		<path d="M2656,675.9c0.1-5.8,0.8-11,2.1-15.7c1.4-4.6,3.3-8.6,5.9-11.8c2.6-3.2,5.7-5.7,9.4-7.4c3.7-1.7,7.9-2.6,12.5-2.6
			c9.9,0,19.2,3.8,28.1,11.2v-11.7c-8.4-6.5-18.6-9.7-30.5-9.7c-5.9,0-11.2,1.1-16,3.3s-8.9,5.5-12.3,9.7s-6,9.5-7.8,15.6
			s-2.7,13.2-2.7,21.2c0,7.1,1,13.7,3,19.8s4.8,11.3,8.3,15.7s7.7,7.9,12.6,10.4c4.9,2.5,10.2,3.8,16,3.8c5.7,0,10.7-1.1,15-3.2
			c4.3-2.1,8-5.2,10.9-9.2c2.9-4,5.2-8.8,6.7-14.5c1.5-5.7,2.3-12.1,2.3-19.1v-5.9H2656z M2708.2,686.3c-0.2,9.9-2.3,17.6-6.5,23
			s-10,8.2-17.4,8.2c-3.7,0-7.2-0.7-10.3-2.1s-6-3.5-8.4-6.2c-2.4-2.7-4.4-6-6-9.8s-2.7-8.2-3.3-13H2708.2z"/>
		<path d="M2800.3,630.5v54.8c0,21.5-7.2,32.2-21.6,32.2c-3.8,0-7.4-0.8-10.6-2.5c-3.3-1.6-6.1-3.9-8.5-6.8
			c-2.4-2.9-4.2-6.4-5.6-10.4s-2-8.3-2-12.9v-54.4h-11v95.1h11v-16.5h0.3c6.5,12.5,16.3,18.8,29.4,18.8c9.6,0,16.9-3.4,22-10.1
			c5-6.7,7.6-16.5,7.6-29.2v-57.9H2800.3z"/>
		<path d="M2911.4,613.3c-3.4-9.3-7.4-16.2-11.8-20.7c-4.5-4.5-9.9-6.7-16.2-6.7c-3.1,0-5.8,0.4-8,1.2v11.1c1.3-0.5,2.5-0.9,3.8-1.1
			s2.6-0.4,3.9-0.4c3.6,0,6.7,1.2,9.4,3.7c2.7,2.4,5,6.1,6.9,11.1l7.6,19.5l-33.8,94.6h12.2l25.1-75.3c0.3-1,0.7-2.1,1-3.4
			s0.6-2.5,0.9-3.8h0.4c0.3,1,0.6,2.1,0.8,3.2c0.3,1.1,0.6,2.3,1.1,3.6l26.7,75.7h11.6L2911.4,613.3z"/>
		<path d="M3003.3,628.3c-6.5,0-12.4,1.2-17.5,3.5s-9.6,5.7-13.3,10c-3.7,4.3-6.5,9.5-8.4,15.5c-1.9,6-2.9,12.6-2.9,20
			c0,7.9,1,15,3.1,21.3s5,11.6,8.8,15.9c3.8,4.4,8.4,7.7,13.8,10c5.4,2.3,11.4,3.4,18,3.4c6.3,0,12.1-1.1,17.2-3.4
			c5.1-2.3,9.4-5.5,12.9-9.8s6.3-9.5,8.2-15.6s2.8-13.1,2.8-20.9c0-7.4-1-14.2-3-20.3s-4.8-11.3-8.5-15.7s-8.1-7.8-13.4-10.2
			C3015.8,629.5,3009.9,628.3,3003.3,628.3z M3004.1,717.5c-4.8,0-9.2-0.9-13-2.7s-7.2-4.4-10-7.8c-2.8-3.4-4.9-7.6-6.4-12.6
			s-2.2-10.6-2.2-16.9c0-5.9,0.7-11.3,2.2-16.1s3.6-8.8,6.3-12.3s6-6,9.9-7.8c3.9-1.8,8.2-2.7,13-2.7c4.9,0,9.3,0.9,13,2.6
			c3.8,1.8,7,4.3,9.6,7.7c2.6,3.4,4.6,7.5,6,12.4c1.3,4.9,2,10.5,2,16.7c0,12.8-2.6,22.6-7.9,29.4S3013.9,717.5,3004.1,717.5z"/>
		<path d="M3125.5,630.5v16.2h-0.4c-5.9-12.3-15.2-18.4-27.7-18.4c-20.9,0-31.3,13.8-31.3,41.4v55.9h11v-53.7
			c0-11.4,1.9-19.8,5.6-25.2c3.8-5.4,9.5-8.2,17.2-8.2c3.8,0,7.2,0.8,10.3,2.4c3.1,1.6,5.8,3.8,8.1,6.7c2.3,2.9,4,6.3,5.3,10.4
			s1.9,8.5,1.9,13.4v54.3h11v-95.1H3125.5z"/>
		<path d="M3208.4,713.4c-2.6,2-5.9,3.1-10,3.1c-2.9,0-5.5-0.6-7.7-1.8c-2.2-1.2-4.2-2.8-5.9-4.9c-1.7-2.1-3.1-4.4-4.3-7.1
			c-1.2-2.7-2.1-5.5-2.8-8.4c-0.7-2.9-1.2-5.8-1.5-8.8c-0.3-3-0.5-5.8-0.5-8.4v-46.5h-10.9v95.1h10.9v-20.3h0.3
			c1,3.5,2.3,6.6,3.9,9.3s3.4,5.1,5.4,7s4.3,3.3,6.7,4.3c2.4,1,5,1.5,7.7,1.5c1.8,0,3.4-0.1,4.8-0.4c1.4-0.2,2.7-0.6,3.8-1.1V713.4z
			"/>
		<path d="M3351.8,630.5h-11l-18.6,69.8c-0.6,2.2-1,5-1.4,8.4h-0.3c-0.1-0.9-0.3-2.1-0.6-3.4c-0.3-1.4-0.7-3-1.2-4.8l-20.5-70h-10.7
			l-26.6,95.1h11.7l19.3-73.7c0.6-2.2,1-4.9,1.2-8.3h0.7c0.1,1.1,0.3,2.4,0.6,3.8c0.3,1.4,0.6,2.9,1.1,4.6l21.3,73.6h9.1l19-73.8
			c0.5-2.1,0.9-4.9,1.3-8.3h0.7c-0.1,1,0.1,2.3,0.3,3.7c0.3,1.4,0.7,2.9,1.1,4.6l19.3,73.8h11.1L3351.8,630.5z"/>
		<path d="M3430.8,628.3c-6.5,0-12.4,1.2-17.5,3.5s-9.6,5.7-13.3,10c-3.7,4.3-6.5,9.5-8.4,15.5c-1.9,6-2.9,12.6-2.9,20
			c0,7.9,1,15,3.1,21.3s5,11.6,8.8,15.9c3.8,4.4,8.4,7.7,13.8,10c5.4,2.3,11.4,3.4,18,3.4c6.3,0,12.1-1.1,17.2-3.4
			c5.1-2.3,9.4-5.5,12.9-9.8s6.3-9.5,8.2-15.6s2.8-13.1,2.8-20.9c0-7.4-1-14.2-3-20.3s-4.8-11.3-8.5-15.7s-8.1-7.8-13.4-10.2
			C3443.4,629.5,3437.5,628.3,3430.8,628.3z M3431.7,717.5c-4.8,0-9.2-0.9-13-2.7s-7.2-4.4-10-7.8c-2.8-3.4-4.9-7.6-6.4-12.6
			s-2.2-10.6-2.2-16.9c0-5.9,0.7-11.3,2.2-16.1s3.6-8.8,6.3-12.3s6-6,9.9-7.8c3.9-1.8,8.2-2.7,13-2.7c4.9,0,9.3,0.9,13,2.6
			c3.8,1.8,7,4.3,9.6,7.7c2.6,3.4,4.6,7.5,6,12.4c1.3,4.9,2,10.5,2,16.7c0,12.8-2.6,22.6-7.9,29.4S3441.5,717.5,3431.7,717.5z"/>
		<path d="M3539.2,713.4c-2.6,2-5.9,3.1-10,3.1c-2.9,0-5.5-0.6-7.7-1.8c-2.2-1.2-4.2-2.8-5.9-4.9c-1.7-2.1-3.1-4.4-4.3-7.1
			c-1.2-2.7-2.1-5.5-2.8-8.4c-0.7-2.9-1.2-5.8-1.5-8.8c-0.3-3-0.5-5.8-0.5-8.4v-46.5h-10.9v95.1h10.9v-20.3h0.3
			c1,3.5,2.3,6.6,3.9,9.3s3.4,5.1,5.4,7s4.3,3.3,6.7,4.3c2.4,1,5,1.5,7.7,1.5c1.8,0,3.4-0.1,4.8-0.4c1.4-0.2,2.7-0.6,3.8-1.1V713.4z
			"/>
		<path d="M3555.1,630.5v140.7h11V630.5H3555.1z"/>
		<path d="M3656,630.5v16.7h-0.3c-2.9-6-7.1-10.7-12.5-14c-5.4-3.3-11.5-5-18.4-5c-5.5,0-10.5,1.1-15,3.3c-4.5,2.2-8.3,5.4-11.5,9.5
			c-3.2,4.1-5.7,9.2-7.4,15s-2.6,12.5-2.6,20c0,7.7,1,14.7,2.9,21s4.6,11.8,8.2,16.3s7.7,8.1,12.7,10.6c5,2.5,10.4,3.8,16.5,3.8
			c12.6,0,21.7-5.5,27.2-16.4h0.3v59.9h11V630.5H3656z M3656,687.9c0,4.2-0.7,8-2,11.6c-1.3,3.6-3.1,6.7-5.5,9.4
			c-2.3,2.7-5.2,4.8-8.4,6.3c-3.3,1.5-6.9,2.3-10.9,2.3c-4.3,0-8.3-0.9-12-2.8c-3.7-1.9-6.8-4.5-9.4-8c-2.6-3.5-4.6-7.8-6.1-12.8
			c-1.5-5-2.2-10.7-2.2-17.1c0-6,0.7-11.4,2-16.2c1.3-4.8,3.2-8.8,5.6-12.1c2.4-3.3,5.3-5.8,8.7-7.5c3.4-1.7,7.1-2.6,11.2-2.6
			c4.5,0,8.5,0.9,12.1,2.6c3.6,1.7,6.6,4.1,9.1,7.1c2.5,3,4.4,6.6,5.8,10.7c1.3,4.1,2,8.4,2,13.1V687.9z"/>
		<path d="M3711.7,667.5c-0.6,1.6-1.1,3.7-1.5,6.2c-0.4,2.5-0.6,5-0.6,7.6c0,3.2,0.4,6,1.4,8.6s2.1,5,3.6,7.3
			c1.5,2.3,3.2,4.5,5.2,6.6c2,2.1,4,4.2,6.1,6.4c1.7,1.7,3.4,3.5,4.9,5.3s3,3.7,4.2,5.8s2.2,4.2,2.9,6.5c0.7,2.3,1.1,4.8,1.1,7.5
			c0,3.2-0.5,6.1-1.6,8.5c-1.1,2.5-2.5,4.6-4.4,6.3c-1.9,1.7-4.1,3-6.6,3.9c-2.5,0.9-5.3,1.3-8.2,1.3c-5.1,0-9.9-1-14.2-3
			c-4.4-2-8.4-5-12.2-8.9v13.2c4.2,3.2,8.6,5.5,13.1,7.1c4.5,1.6,9.3,2.3,14.4,2.3c4.3,0,8.3-0.6,12.1-1.9c3.7-1.3,7-3.1,9.7-5.6
			c2.7-2.5,4.9-5.5,6.5-9.1c1.6-3.6,2.4-7.8,2.4-12.6c0-3.5-0.4-6.7-1.3-9.6c-0.9-2.9-2.1-5.6-3.5-8.1c-1.5-2.5-3.1-4.8-4.9-7
			c-1.8-2.2-3.7-4.2-5.7-6.2c-2.5-2.5-4.6-4.8-6.5-6.8c-1.9-2-3.4-3.9-4.7-5.8s-2.2-3.7-2.9-5.7c-0.7-1.9-1-4.1-1-6.4
			c0-2.8,0.3-5.4,0.8-7.7c0.5-2.3,1.1-4.3,1.7-5.9H3711.7z M3717,628.9c-1.1,0-2.1,0.2-3.1,0.6c-1,0.4-1.8,1.1-2.6,1.9
			c-0.7,0.8-1.3,1.7-1.8,2.8c-0.5,1.1-0.7,2.2-0.7,3.5c0,1.3,0.2,2.5,0.6,3.6c0.4,1.1,1,2,1.8,2.8c0.7,0.8,1.6,1.4,2.6,1.9
			c1,0.5,2,0.7,3.1,0.7s2.1-0.2,3.1-0.6c1-0.4,1.9-1.1,2.7-1.9c0.8-0.8,1.4-1.7,1.8-2.8s0.7-2.3,0.7-3.6c0-1.2-0.2-2.4-0.7-3.5
			c-0.5-1.1-1.1-2-1.8-2.8c-0.8-0.8-1.7-1.4-2.7-1.9C3719.2,629.1,3718.1,628.9,3717,628.9z"/>
	</g>
</g>
</svg>
