<?xml version="1.0" encoding="utf-8"?>
<!-- Generator: Adobe Illustrator 28.1.0, SVG Export Plug-In . SVG Version: 6.00 Build 0)  -->
<svg version="1.1" id="Layer_1" xmlns="http://www.w3.org/2000/svg" xmlns:xlink="http://www.w3.org/1999/xlink" x="0px" y="0px"
	 viewBox="0 0 86.4 129.8" style="enable-background:new 0 0 86.4 129.8;" xml:space="preserve">
<style type="text/css">
	.st0{fill:#28479E;}
</style>
<g transform="translate(0.000000,201.000000) scale(0.100000,-0.100000)">
	<path d="M230.7,2004.6c-22-3-42-8-45-13c-4-6-4-139,0-257c0-8,13-13,30-13c23,0,30,4,30,20c0,11-7,20-15,20c-13,0-15,15-13,96l3,96
		h214h214l-1-93c0-58-4-95-11-97c-6-2-11-12-11-23c0-14,7-19,30-19h30v139v138l-61,7C559.7,2011.6,299.7,2011.6,230.7,2004.6z"/>
	<path d="M305.7,1741.6v-30h130h130v30v30h-130h-130V1741.6z"/>
	<path d="M240.7,1648.6c-8-4-15-19-15-32v-25h210h210v24c0,14-6,28-12,33C616.7,1658.6,259.7,1659.6,240.7,1648.6z"/>
	<path d="M309.4,1522.4c70-19.2,184-19.2,255,0c70,9.6,12,28.8-128,28.8S238.4,1532,309.4,1522.4z"/>
	<path class="st0" d="M40.7,1472.6c-9-16,1-28,50-57c42-24,65-25,65-4c0,9-66,55-95,66C53.7,1480.6,44.7,1478.6,40.7,1472.6z"/>
	<path class="st0" d="M761.7,1451.6c-44-28-57-56-25-54c24,2,101,54,97,66C826.7,1484.6,810.7,1481.6,761.7,1451.6z"/>
	<path class="st0" d="M265.7,1287.6v-173l60-2c48-1,60,2,60,14c0,8,4,23,9,33c5,9,12,25,15,35c10,31,41,20,59-21c9-21,17-44,17-50
		c0-8,21-12,60-12h60v175v175h-170h-170V1287.6z M463.7,1337.6c51-28,82-122,50-154c-20-20-46,4-46,43c0,34-16,65-33,65
		c-11,0-40-56-38-73c4-30-2-38-23-35c-50,7-26,122,31,153C436.7,1353.6,435.7,1353.6,463.7,1337.6z"/>
	<path class="st0" d="M2.7,1287.6c-9-22,2-26,65-26c51,0,59,2,56,18C119.7,1302.6,11.7,1310.6,2.7,1287.6z"/>
	<path class="st0" d="M747.7,1288.6c-18-21-4-27,60-27c51,0,59,2,56,18C859.7,1302.6,764.7,1309.6,747.7,1288.6z"/>
	<path class="st0" d="M90.7,1140.6c-16-11-36-24-44-28c-8-5-11-16-8-26c6-15,13-13,60,14c51,29,67,54,37,58
		C127.7,1159.6,107.7,1151.6,90.7,1140.6z"/>
	<path class="st0" d="M722.7,1154.6c-4-3-7-10-7-14c0-12,102-69,112-63c18,11,6,30-36,57C747.7,1162.6,733.7,1166.6,722.7,1154.6z"
		/>
	<path d="M186.7,1039.6c-4-13-7-68-7-123l1-100l253-1l253-1l-3,121l-3,121l-243,3l-242,2L186.7,1039.6z M494.7,985.6
		c47-60,6-130-72-125c-27,2-67,47-67,76C355.7,1003.6,453.7,1037.6,494.7,985.6z"/>
	<path d="M418.7,945.6c-8-21,13-42,28-27c13,13,5,43-11,43C429.7,961.6,422.7,954.6,418.7,945.6z"/>
	<path d="M115.7,736.6v-25h320h320v25v25h-320h-320V736.6z"/>
</g>
</svg>
